<svg width="49" height="23" viewBox="0 0 49 23" fill="none" xmlns="http://www.w3.org/2000/svg">
<path d="M7.59036 10.3614C7.59036 10.8916 7.46988 11.3687 7.22892 11.7928C6.98795 12.2072 6.64096 12.5301 6.18795 12.7614C5.73494 12.9831 5.2 13.094 4.58313 13.094H2.53012V16H0.809639V7.74458H4.51084C5.50361 7.74458 6.26506 7.9759 6.79518 8.43855C7.3253 8.89157 7.59036 9.53253 7.59036 10.3614ZM5.85542 10.3904C5.85542 9.52289 5.34458 9.08916 4.32289 9.08916H2.53012V11.7639H4.36627C4.83855 11.7639 5.20482 11.6482 5.46506 11.4169C5.7253 11.1759 5.85542 10.8337 5.85542 10.3904ZM7.63074 16V11.1422C7.63074 10.7952 7.62592 10.506 7.61628 10.2747C7.60665 10.0434 7.59701 9.83614 7.58737 9.65301H9.14881C9.15845 9.72048 9.17291 9.93735 9.19219 10.3036C9.2211 10.6602 9.23556 10.8964 9.23556 11.012H9.25002C9.41387 10.5687 9.55845 10.2554 9.68375 10.0723C9.80906 9.88916 9.95363 9.75422 10.1175 9.66747C10.291 9.58072 10.5079 9.53735 10.7681 9.53735C10.9801 9.53735 11.1488 9.56626 11.2741 9.6241V10.9976C11.0042 10.9398 10.7729 10.9108 10.5801 10.9108C10.1657 10.9108 9.84279 11.0795 9.61146 11.4169C9.38978 11.7446 9.27893 12.2361 9.27893 12.8916V16H7.63074ZM17.1237 12.8193C17.1237 13.8506 16.8346 14.6602 16.2563 15.2482C15.6876 15.8265 14.902 16.1157 13.8996 16.1157C12.9069 16.1157 12.1261 15.8265 11.5575 15.2482C10.9984 14.6602 10.7189 13.8506 10.7189 12.8193C10.7189 11.7976 10.9984 10.9976 11.5575 10.4193C12.1261 9.83132 12.9165 9.53735 13.9285 9.53735C14.9599 9.53735 15.7502 9.82169 16.2996 10.3904C16.849 10.9494 17.1237 11.759 17.1237 12.8193ZM15.3888 12.8193C15.3888 12.0675 15.2635 11.5229 15.0129 11.1855C14.7719 10.8482 14.4201 10.6795 13.9575 10.6795C12.955 10.6795 12.4538 11.3928 12.4538 12.8193C12.4538 13.5229 12.5743 14.0627 12.8153 14.4386C13.0659 14.8048 13.4177 14.988 13.8707 14.988C14.8828 14.988 15.3888 14.2651 15.3888 12.8193ZM19.8675 18.5446C19.0965 18.5446 18.4748 18.3952 18.0025 18.0964C17.5302 17.8072 17.2362 17.388 17.1206 16.8386L18.7687 16.6506C18.8266 16.9012 18.9519 17.0988 19.1447 17.2434C19.3374 17.388 19.5928 17.4602 19.9109 17.4602C20.3639 17.4602 20.6965 17.3205 20.9085 17.041C21.1206 16.7614 21.2266 16.3422 21.2266 15.7831V15.4506L21.241 14.8289H21.2266C20.8603 15.6096 20.1808 15.9952 19.188 15.9855C18.4459 15.9855 17.8724 15.7108 17.4675 15.1614C17.0627 14.6024 16.8603 13.8072 16.8603 12.7759C16.8603 11.7446 17.0675 10.9494 17.482 10.3904C17.9061 9.82169 18.5133 9.53735 19.3037 9.53735C20.229 9.53735 20.87 9.91807 21.2266 10.6795H21.2555C21.2555 10.5446 21.2651 10.3614 21.2844 10.1301C21.3037 9.88916 21.323 9.73012 21.3422 9.65301H22.8892C22.87 10.0771 22.8603 10.5687 22.8603 11.1277V15.812C22.8603 16.7181 22.6049 17.3976 22.0941 17.8506C21.5832 18.3133 20.841 18.5446 19.8675 18.5446ZM21.241 12.747C21.241 12.0916 21.1254 11.5807 20.8941 11.2145C20.6627 10.8482 20.3302 10.6651 19.8965 10.6651C19.0194 10.6651 18.5808 11.3687 18.5808 12.7759C18.5808 14.1542 19.0145 14.8434 19.882 14.8434C20.3157 14.8434 20.6483 14.6651 20.8796 14.3084C21.1206 13.9422 21.241 13.4217 21.241 12.747ZM23.3198 16V11.1422C23.3198 10.7952 23.315 10.506 23.3053 10.2747C23.2957 10.0434 23.2861 9.83614 23.2764 9.65301H24.8379C24.8475 9.72048 24.862 9.93735 24.8813 10.3036C24.9102 10.6602 24.9246 10.8964 24.9246 11.012H24.9391C25.1029 10.5687 25.2475 10.2554 25.3728 10.0723C25.4981 9.88916 25.6427 9.75422 25.8066 9.66747C25.98 9.58072 26.1969 9.53735 26.4572 9.53735C26.6692 9.53735 26.8379 9.56626 26.9632 9.6241V10.9976C26.6933 10.9398 26.462 10.9108 26.2692 10.9108C25.8547 10.9108 25.5319 11.0795 25.3005 11.4169C25.0788 11.7446 24.968 12.2361 24.968 12.8916V16H23.3198ZM29.3718 16.1157C28.4176 16.1157 27.6851 15.8361 27.1742 15.2771C26.6634 14.7084 26.408 13.8843 26.408 12.8048C26.408 11.7542 26.6682 10.9494 27.1887 10.3904C27.7092 9.82169 28.4465 9.53735 29.4007 9.53735C30.3068 9.53735 31.0007 9.84096 31.4827 10.4482C31.9646 11.0554 32.2056 11.9373 32.2056 13.094V13.1518H28.1429C28.1429 13.7687 28.2537 14.2361 28.4754 14.5542C28.7068 14.8627 29.0345 15.0169 29.4586 15.0169C30.0369 15.0169 30.4031 14.7663 30.5574 14.2651L32.1188 14.3952C31.6658 15.5422 30.7501 16.1157 29.3718 16.1157ZM29.3718 10.5783C28.9863 10.5783 28.6875 10.7133 28.4754 10.9831C28.273 11.253 28.167 11.6289 28.1574 12.1108H30.6152C30.5863 11.6 30.461 11.2193 30.2393 10.9687C30.0272 10.7084 29.7381 10.5783 29.3718 10.5783ZM37.6012 14.1494C37.6012 14.7663 37.3458 15.2482 36.835 15.5952C36.3338 15.9422 35.6398 16.1157 34.753 16.1157C33.8856 16.1157 33.2205 15.9807 32.7579 15.7108C32.2952 15.4313 31.9868 15.0024 31.8326 14.4241L33.2783 14.2072C33.3651 14.506 33.5097 14.7181 33.7121 14.8434C33.9145 14.9687 34.2615 15.0313 34.753 15.0313C35.2157 15.0313 35.553 14.9735 35.7651 14.8578C35.9771 14.7325 36.0832 14.5446 36.0832 14.294C36.0832 14.0916 35.9964 13.9325 35.8229 13.8169C35.6591 13.7012 35.3747 13.6 34.9699 13.5133C34.0446 13.3301 33.4181 13.1614 33.0904 13.0072C32.7627 12.8434 32.5121 12.6361 32.3386 12.3855C32.1747 12.1349 32.0928 11.8265 32.0928 11.4602C32.0928 10.853 32.3241 10.3807 32.7868 10.0434C33.2494 9.70602 33.9097 9.53735 34.7675 9.53735C35.5193 9.53735 36.1265 9.68675 36.5892 9.98554C37.0518 10.2747 37.3362 10.694 37.4422 11.2434L35.9964 11.4024C35.9482 11.1422 35.8326 10.9494 35.6494 10.8241C35.4663 10.6988 35.1723 10.6361 34.7675 10.6361C34.3723 10.6361 34.0783 10.6843 33.8856 10.7807C33.6928 10.8771 33.5964 11.0458 33.5964 11.2867C33.5964 11.4699 33.6687 11.6145 33.8133 11.7205C33.9675 11.8265 34.2229 11.9133 34.5795 11.9807C35.0711 12.0867 35.5097 12.1928 35.8952 12.2988C36.2904 12.4048 36.6036 12.5349 36.835 12.6892C37.0663 12.8337 37.2494 13.0217 37.3844 13.253C37.5289 13.4843 37.6012 13.7831 37.6012 14.1494ZM43.0692 14.1494C43.0692 14.7663 42.8138 15.2482 42.3029 15.5952C41.8017 15.9422 41.1078 16.1157 40.221 16.1157C39.3535 16.1157 38.6885 15.9807 38.2258 15.7108C37.7632 15.4313 37.4547 15.0024 37.3005 14.4241L38.7463 14.2072C38.8331 14.506 38.9776 14.7181 39.18 14.8434C39.3825 14.9687 39.7294 15.0313 40.221 15.0313C40.6837 15.0313 41.021 14.9735 41.2331 14.8578C41.4451 14.7325 41.5511 14.5446 41.5511 14.294C41.5511 14.0916 41.4644 13.9325 41.2909 13.8169C41.127 13.7012 40.8427 13.6 40.4379 13.5133C39.5126 13.3301 38.8861 13.1614 38.5584 13.0072C38.2306 12.8434 37.98 12.6361 37.8065 12.3855C37.6427 12.1349 37.5608 11.8265 37.5608 11.4602C37.5608 10.853 37.7921 10.3807 38.2547 10.0434C38.7174 9.70602 39.3776 9.53735 40.2355 9.53735C40.9873 9.53735 41.5945 9.68675 42.0572 9.98554C42.5198 10.2747 42.8041 10.694 42.9102 11.2434L41.4644 11.4024C41.4162 11.1422 41.3005 10.9494 41.1174 10.8241C40.9343 10.6988 40.6403 10.6361 40.2355 10.6361C39.8403 10.6361 39.5463 10.6843 39.3535 10.7807C39.1608 10.8771 39.0644 11.0458 39.0644 11.2867C39.0644 11.4699 39.1367 11.6145 39.2812 11.7205C39.4355 11.8265 39.6909 11.9133 40.0475 11.9807C40.5391 12.0867 40.9776 12.1928 41.3632 12.2988C41.7584 12.4048 42.0716 12.5349 42.3029 12.6892C42.5343 12.8337 42.7174 13.0217 42.8523 13.253C42.9969 13.4843 43.0692 13.7831 43.0692 14.1494Z" fill="#8F85ED"/>
<path d="M47.8675 12.8193C47.8675 13.8506 47.5783 14.6602 47 15.2482C46.4313 15.8265 45.6458 16.1157 44.6434 16.1157C43.6506 16.1157 42.8699 15.8265 42.3012 15.2482C41.7422 14.6602 41.4627 13.8506 41.4627 12.8193C41.4627 11.7976 41.7422 10.9976 42.3012 10.4193C42.8699 9.83132 43.6602 9.53735 44.6723 9.53735C45.7036 9.53735 46.494 9.82169 47.0434 10.3904C47.5928 10.9494 47.8675 11.759 47.8675 12.8193ZM46.1325 12.8193C46.1325 12.0675 46.0072 11.5229 45.7566 11.1855C45.5157 10.8482 45.1639 10.6795 44.7012 10.6795C43.6988 10.6795 43.1976 11.3928 43.1976 12.8193C43.1976 13.5229 43.3181 14.0627 43.559 14.4386C43.8096 14.8048 44.1614 14.988 44.6145 14.988C45.6265 14.988 46.1325 14.2651 46.1325 12.8193Z" fill="#8F85ED" fill-opacity="0.75"/>
</svg>
