<svg xmlns="http://www.w3.org/2000/svg" version="1.1" xmlns:xlink="http://www.w3.org/1999/xlink" xmlns:svgjs="http://svgjs.dev/svgjs" width="1000" height="1012" viewBox="0 0 1000 1012"><g transform="matrix(1,0,0,1,0.8839433069474012,0.40971659919023296)"><svg viewBox="0 0 244 247" data-background-color="#ffffff" preserveAspectRatio="xMidYMid meet" height="1012" width="1000" xmlns="http://www.w3.org/2000/svg" xmlns:xlink="http://www.w3.org/1999/xlink"><g id="tight-bounds" transform="matrix(1,0,0,1,-0.21568216689516362,-0.09999999999999432)"><svg viewBox="0 0 244.43135999999998 247.2" height="247.2" width="244.43135999999998"><g><svg></svg></g><g><svg viewBox="0 0 244.43135999999998 247.2" height="247.2" width="244.43135999999998"><g transform="matrix(1,0,0,1,0,101.72982568421052)"><svg viewBox="0 0 244.43135999999998 43.74034863157894" height="43.74034863157894" width="244.43135999999998"><g><svg viewBox="0 0 244.43135999999998 43.74034863157894" height="43.74034863157894" width="244.43135999999998"><g><svg viewBox="0 0 244.43135999999998 43.74034863157894" height="43.74034863157894" width="244.43135999999998"><g><svg viewBox="0 0 244.43135999999998 43.74034863157894" height="43.74034863157894" width="244.43135999999998"><g><svg viewBox="0 0 244.43135999999998 43.74034863157894" height="43.74034863157894" width="244.43135999999998"><g><svg viewBox="0 0 244.43135999999998 43.74034863157894" height="43.74034863157894" width="244.43135999999998"><g transform="matrix(1,0,0,1,0,0)"><svg width="244.43135999999998" viewBox="4.699999809265137 -35 251.72999572753906 45.04999923706055" height="43.74034863157894" data-palette-color="#627bfc"><path d="M19.1-35Q23.65-35 27.03-33.5 30.4-32 32.2-29.2 34-26.4 34-22.55L34-22.55Q34-18.75 32.2-15.93 30.4-13.1 27.03-11.6 23.65-10.1 19.1-10.1L19.1-10.1 11.2-10.1 11.2 0 4.7 0 4.7-35 19.1-35ZM18.8-15.6Q23.05-15.6 25.25-17.4 27.45-19.2 27.45-22.55L27.45-22.55Q27.45-25.9 25.25-27.7 23.05-29.5 18.8-29.5L18.8-29.5 11.2-29.5 11.2-15.6 18.8-15.6ZM45.6-22.8Q48.3-27 55.1-27L55.1-27 55.1-21.05Q54.3-21.2 53.65-21.2L53.65-21.2Q50-21.2 47.95-19.07 45.9-16.95 45.9-12.95L45.9-12.95 45.9 0 39.65 0 39.65-26.7 45.6-26.7 45.6-22.8ZM72.15 0.35Q68.1 0.35 64.85-1.4 61.6-3.15 59.77-6.28 57.95-9.4 57.95-13.35L57.95-13.35Q57.95-17.3 59.77-20.4 61.6-23.5 64.85-25.25 68.1-27 72.15-27L72.15-27Q76.25-27 79.5-25.25 82.75-23.5 84.57-20.4 86.4-17.3 86.4-13.35L86.4-13.35Q86.4-9.4 84.57-6.28 82.75-3.15 79.5-1.4 76.25 0.35 72.15 0.35L72.15 0.35ZM72.15-5Q75.6-5 77.85-7.3 80.1-9.6 80.1-13.35L80.1-13.35Q80.1-17.1 77.85-19.4 75.6-21.7 72.15-21.7L72.15-21.7Q68.7-21.7 66.47-19.4 64.25-17.1 64.25-13.35L64.25-13.35Q64.25-9.6 66.47-7.3 68.7-5 72.15-5L72.15-5ZM112.94-26.7L118.89-26.7 118.89-4.05Q118.89 10.05 104.49 10.05L104.49 10.05Q100.64 10.05 97.19 9.08 93.74 8.1 91.49 6.25L91.49 6.25 94.29 1.55Q96.04 3 98.72 3.88 101.39 4.75 104.14 4.75L104.14 4.75Q108.54 4.75 110.59 2.75 112.64 0.75 112.64-3.35L112.64-3.35 112.64-4.75Q111.04-3 108.74-2.1 106.44-1.2 103.69-1.2L103.69-1.2Q99.89-1.2 96.82-2.83 93.74-4.45 91.97-7.4 90.19-10.35 90.19-14.15L90.19-14.15Q90.19-17.95 91.97-20.88 93.74-23.8 96.82-25.4 99.89-27 103.69-27L103.69-27Q106.59-27 108.97-26.05 111.34-25.1 112.94-23.15L112.94-23.15 112.94-26.7ZM104.64-6.5Q108.19-6.5 110.47-8.63 112.74-10.75 112.74-14.15L112.74-14.15Q112.74-17.5 110.47-19.6 108.19-21.7 104.64-21.7L104.64-21.7Q101.04-21.7 98.77-19.6 96.49-17.5 96.49-14.15L96.49-14.15Q96.49-10.75 98.77-8.63 101.04-6.5 104.64-6.5L104.64-6.5ZM133.04-22.8Q135.74-27 142.54-27L142.54-27 142.54-21.05Q141.74-21.2 141.09-21.2L141.09-21.2Q137.44-21.2 135.39-19.07 133.34-16.95 133.34-12.95L133.34-12.95 133.34 0 127.09 0 127.09-26.7 133.04-26.7 133.04-22.8ZM172.69-13.2Q172.69-12.55 172.59-11.35L172.59-11.35 151.64-11.35Q152.19-8.4 154.51-6.68 156.84-4.95 160.29-4.95L160.29-4.95Q164.69-4.95 167.54-7.85L167.54-7.85 170.89-4Q169.09-1.85 166.34-0.75 163.59 0.35 160.14 0.35L160.14 0.35Q155.74 0.35 152.39-1.4 149.04-3.15 147.21-6.28 145.39-9.4 145.39-13.35L145.39-13.35Q145.39-17.25 147.16-20.38 148.94-23.5 152.09-25.25 155.24-27 159.19-27L159.19-27Q163.09-27 166.16-25.28 169.24-23.55 170.96-20.43 172.69-17.3 172.69-13.2L172.69-13.2ZM159.19-22Q156.19-22 154.11-20.23 152.04-18.45 151.59-15.5L151.59-15.5 166.74-15.5Q166.34-18.4 164.29-20.2 162.24-22 159.19-22L159.19-22ZM186.94 0.35Q183.69 0.35 180.59-0.5 177.49-1.35 175.64-2.65L175.64-2.65 178.03-7.4Q179.84-6.2 182.36-5.48 184.89-4.75 187.34-4.75L187.34-4.75Q192.94-4.75 192.94-7.7L192.94-7.7Q192.94-9.1 191.51-9.65 190.09-10.2 186.94-10.7L186.94-10.7Q183.64-11.2 181.56-11.85 179.49-12.5 177.96-14.13 176.44-15.75 176.44-18.65L176.44-18.65Q176.44-22.45 179.61-24.73 182.78-27 188.19-27L188.19-27Q190.94-27 193.69-26.38 196.44-25.75 198.19-24.7L198.19-24.7 195.79-19.95Q192.39-21.95 188.14-21.95L188.14-21.95Q185.39-21.95 183.96-21.13 182.53-20.3 182.53-18.95L182.53-18.95Q182.53-17.45 184.06-16.82 185.59-16.2 188.78-15.65L188.78-15.65Q191.99-15.15 194.04-14.5 196.09-13.85 197.56-12.3 199.04-10.75 199.04-7.9L199.04-7.9Q199.04-4.15 195.79-1.9 192.53 0.35 186.94 0.35L186.94 0.35ZM212.68 0.35Q209.43 0.35 206.33-0.5 203.23-1.35 201.38-2.65L201.38-2.65 203.78-7.4Q205.58-6.2 208.11-5.48 210.63-4.75 213.08-4.75L213.08-4.75Q218.68-4.75 218.68-7.7L218.68-7.7Q218.68-9.1 217.26-9.65 215.83-10.2 212.68-10.7L212.68-10.7Q209.38-11.2 207.31-11.85 205.23-12.5 203.71-14.13 202.18-15.75 202.18-18.65L202.18-18.65Q202.18-22.45 205.36-24.73 208.53-27 213.93-27L213.93-27Q216.68-27 219.43-26.38 222.18-25.75 223.93-24.7L223.93-24.7 221.53-19.95Q218.13-21.95 213.88-21.95L213.88-21.95Q211.13-21.95 209.71-21.13 208.28-20.3 208.28-18.95L208.28-18.95Q208.28-17.45 209.81-16.82 211.33-16.2 214.53-15.65L214.53-15.65Q217.73-15.15 219.78-14.5 221.83-13.85 223.31-12.3 224.78-10.75 224.78-7.9L224.78-7.9Q224.78-4.15 221.53-1.9 218.28 0.35 212.68 0.35L212.68 0.35ZM242.18 0.35Q238.13 0.35 234.88-1.4 231.63-3.15 229.81-6.28 227.98-9.4 227.98-13.35L227.98-13.35Q227.98-17.3 229.81-20.4 231.63-23.5 234.88-25.25 238.13-27 242.18-27L242.18-27Q246.28-27 249.53-25.25 252.78-23.5 254.61-20.4 256.43-17.3 256.43-13.35L256.43-13.35Q256.43-9.4 254.61-6.28 252.78-3.15 249.53-1.4 246.28 0.35 242.18 0.35L242.18 0.35ZM242.18-5Q245.63-5 247.88-7.3 250.13-9.6 250.13-13.35L250.13-13.35Q250.13-17.1 247.88-19.4 245.63-21.7 242.18-21.7L242.18-21.7Q238.73-21.7 236.51-19.4 234.28-17.1 234.28-13.35L234.28-13.35Q234.28-9.6 236.51-7.3 238.73-5 242.18-5L242.18-5Z" opacity="1" transform="matrix(1,0,0,1,0,0)" fill="#627bfc" class="undefined-text-0" data-fill-palette-color="primary" id="text-0"></path></svg></g></svg></g></svg></g></svg></g><g></g></svg></g></svg></g></svg></g><path d="M0 95.73L0 1 244.431 1 244.431 95.73 240.487 95.73 240.487 4.945 3.945 4.945 3.945 95.73 0 95.73M0 151.47L0 246.2 244.431 246.2 244.431 151.47 240.487 151.47 240.487 242.255 3.945 242.255 3.945 151.47 0 151.47" fill="#627bfc" stroke="transparent" data-fill-palette-color="primary"></path></svg></g><defs></defs></svg><rect width="244.43135999999998" height="247.2" fill="none" stroke="none" visibility="hidden"></rect></g></svg></g></svg>